<svg width="68" height="48" viewBox="0 0 68 48" fill="none" xmlns="http://www.w3.org/2000/svg">
<g clip-path="url(#clip0_1_1001)">
<path d="M66.599 7.6766C65.8151 4.76356 63.5184 2.46737 60.6058 1.68295C55.2845 0.226685 33.9993 0.226685 33.9993 0.226685C33.9993 0.226685 12.7147 0.226685 7.39337 1.62744C4.53688 2.41134 2.18413 4.76408 1.40023 7.6766C0 12.9974 0 24.0322 0 24.0322C0 24.0322 0 35.1225 1.40023 40.3878C2.18465 43.3003 4.48085 45.597 7.39389 46.3814C12.7707 47.8377 33.9999 47.8377 33.9999 47.8377C33.9999 47.8377 55.2845 47.8377 60.6058 46.4369C63.5189 45.653 65.8151 43.3563 66.5995 40.4438C67.9997 35.1225 67.9997 24.0882 67.9997 24.0882C67.9997 24.0882 68.0557 12.9974 66.599 7.6766Z" fill="#212121" fill-opacity="0.8"/>
<path d="M27.2222 34.2265L44.922 24.0321L27.2222 13.8377V34.2265Z" fill="white"/>
</g>
<defs>
<clipPath id="clip0_1_1001">
<rect width="68" height="48" fill="white"/>
</clipPath>
</defs>
</svg>
