<?xml version="1.0" standalone="no"?>
<!DOCTYPE svg PUBLIC "-//W3C//DTD SVG 20010904//EN"
 "http://www.w3.org/TR/2001/REC-SVG-20010904/DTD/svg10.dtd">
<svg version="1.0" xmlns="http://www.w3.org/2000/svg"
 width="150.000000pt" height="150.000000pt" viewBox="0 0 150.000000 150.000000"
 preserveAspectRatio="xMidYMid meet">
<metadata>
Created by potrace 1.14, written by Peter Selinger 2001-2017
</metadata>
<g transform="translate(0.000000,150.000000) scale(0.100000,-0.100000)"
fill="#000000" stroke="none">
<path d="M570 1490 c0 -5 5 -10 11 -10 5 0 7 5 4 10 -3 6 -8 10 -11 10 -2 0
-4 -4 -4 -10z"/>
<path d="M666 1374 c-78 -25 -119 -59 -162 -131 -21 -37 -39 -72 -40 -78 0 -5
-8 -24 -17 -42 -9 -18 -17 -38 -17 -46 0 -8 -7 -18 -16 -21 -13 -5 -15 -15
-11 -44 4 -24 1 -43 -8 -55 -13 -18 -14 -18 -25 2 -14 27 -38 27 -67 -1 -20
-18 -23 -19 -23 -5 0 9 -5 16 -11 15 -6 -2 -14 3 -16 10 -3 6 0 12 6 12 6 0
11 7 11 15 0 8 -4 15 -10 15 -5 0 -10 -7 -10 -15 0 -8 -4 -15 -10 -15 -5 0
-10 -8 -10 -17 0 -15 -1 -15 -13 1 -7 9 -12 32 -12 51 1 24 -2 32 -12 28 -7
-3 -13 -9 -13 -13 0 -4 -26 -7 -57 -6 -50 1 -58 -1 -55 -16 2 -12 -2 -16 -12
-12 -25 10 -38 -4 -25 -27 9 -17 7 -21 -10 -26 -20 -5 -20 -12 -21 -404 0
-316 2 -399 12 -399 9 0 8 -3 -2 -10 -13 -9 -13 -11 0 -20 10 -6 11 -10 3 -10
-9 0 -13 -18 -13 -54 l0 -55 750 -1 750 -1 0 167 0 166 -30 -5 c-16 -4 -32 -2
-35 2 -3 5 -23 12 -45 16 -34 6 -38 9 -26 21 18 17 33 18 39 2 3 -7 6 -3 6 10
1 20 -4 22 -44 22 -25 0 -45 5 -45 10 0 6 -12 22 -26 35 -24 22 -25 25 -8 26
10 1 26 3 34 4 8 1 30 3 48 4 27 1 32 5 32 26 0 14 -5 25 -11 25 -5 0 -7 5 -4
10 3 6 15 10 26 10 10 0 19 6 19 13 0 9 2 9 9 -1 4 -7 6 -24 3 -38 -2 -14 0
-24 7 -24 6 0 11 -4 11 -10 0 -5 -6 -10 -14 -10 -7 0 -16 -11 -18 -25 -4 -21
-1 -26 21 -31 14 -3 31 -7 37 -9 8 -2 12 21 13 72 l1 75 -25 -6 c-14 -4 -25
-2 -25 4 0 5 11 12 25 16 l25 6 0 149 0 149 -25 0 c-13 0 -28 -6 -32 -12 -8
-13 -93 -18 -93 -6 0 11 -69 27 -127 29 -106 5 -74 19 42 19 117 1 119 1 93
18 -16 9 -28 26 -28 38 0 11 -9 29 -20 39 -11 10 -21 32 -21 49 -1 21 -3 24
-6 11 -3 -11 -12 -25 -20 -32 -8 -6 -12 -16 -8 -22 3 -6 -1 -11 -9 -11 -10 0
-16 9 -16 25 0 19 -5 24 -22 23 -58 -2 -71 1 -58 16 6 8 18 12 27 9 11 -4 14
-2 11 8 -2 8 -21 15 -41 17 -24 2 -37 8 -37 18 0 8 -6 14 -14 14 -9 0 -13 -8
-10 -22 3 -13 -8 7 -23 43 -33 77 -49 103 -95 150 -72 75 -201 106 -302 73z
m50 -113 c33 -9 45 -19 58 -45 9 -19 16 -37 16 -41 0 -5 14 -21 30 -37 17 -16
30 -39 30 -52 0 -29 -26 -37 -114 -35 -65 2 -76 -6 -76 -58 0 -37 15 -44 25
-13 3 11 11 20 16 20 5 0 9 6 9 14 0 17 29 25 55 15 16 -6 12 -8 -15 -8 -34
-1 -34 -1 -13 -16 21 -15 36 -15 107 1 28 6 28 6 23 -36 -2 -23 -9 -45 -13
-49 -19 -13 -44 -70 -44 -98 0 -47 -45 -105 -100 -130 -27 -13 -55 -23 -62
-23 -16 0 -101 85 -117 117 -6 12 -8 29 -5 37 4 9 1 22 -4 29 -26 31 -36 157
-12 142 15 -9 39 6 33 21 -4 10 3 14 28 13 33 -1 33 -2 7 -8 -20 -4 -25 -10
-19 -20 13 -20 62 -6 54 15 -8 22 -44 34 -66 22 -29 -15 -47 -2 -47 34 0 45
25 147 39 161 16 16 103 46 121 42 8 -2 34 -9 56 -14z m-596 -297 c0 -8 -4
-12 -10 -9 -5 3 -10 13 -10 21 0 8 5 12 10 9 6 -3 10 -13 10 -21z m217 -26
c-3 -8 -6 -5 -6 6 -1 11 2 17 5 13 3 -3 4 -12 1 -19z m803 -34 c0 -2 -9 -4
-20 -4 -11 0 -20 4 -20 9 0 5 9 7 20 4 11 -3 20 -7 20 -9z m347 -60 c-3 -3
-12 -4 -19 -1 -8 3 -5 6 6 6 11 1 17 -2 13 -5z m-1098 -176 c-1 -26 -15 -43
-36 -45 -13 -2 -23 2 -23 7 0 6 6 10 14 10 8 0 18 9 21 20 7 22 25 28 24 8z
m-74 -38 c3 -5 -1 -10 -10 -10 -9 0 -13 5 -10 10 3 6 8 10 10 10 2 0 7 -4 10
-10z m381 -40 c8 0 31 -11 51 -24 28 -19 41 -23 60 -15 74 28 123 -10 134
-101 3 -30 3 -59 -1 -65 -17 -23 -18 -93 -2 -109 14 -14 14 -17 -1 -34 -9 -10
-14 -22 -10 -26 4 -4 0 -4 -10 0 -12 4 -17 1 -17 -10 0 -9 -6 -13 -14 -10 -8
3 -20 -4 -28 -15 -8 -12 -18 -18 -21 -15 -4 4 -13 1 -22 -6 -37 -31 -310 28
-352 76 -29 32 -29 42 2 84 14 19 25 28 25 21 0 -26 19 2 36 52 9 28 23 60 31
69 15 17 102 63 114 60 3 0 2 18 -2 41 -11 56 -10 65 2 45 5 -10 17 -18 25
-18z m-446 16 c0 -3 -4 -8 -10 -11 -5 -3 -10 -1 -10 4 0 6 5 11 10 11 6 0 10
-2 10 -4z m50 0 c0 -2 -7 -6 -15 -10 -8 -3 -15 -1 -15 4 0 6 7 10 15 10 8 0
15 -2 15 -4z m50 -5 c0 -5 -9 -7 -20 -4 -11 3 -20 7 -20 9 0 2 9 4 20 4 11 0
20 -4 20 -9z m-12 -25 c-2 -1 -12 -8 -22 -16 -13 -10 -17 -10 -12 -2 5 8 1 12
-11 13 -16 0 -16 1 2 8 16 7 55 3 43 -3z m912 4 c0 -5 -10 -10 -22 -10 -19 0
-20 2 -8 10 19 13 30 13 30 0z m60 0 c0 -5 -2 -10 -4 -10 -3 0 -8 5 -11 10 -3
6 -1 10 4 10 6 0 11 -4 11 -10z m-1051 -3 c-2 -1 -13 -9 -24 -17 -19 -14 -19
-14 -6 3 7 9 18 17 24 17 6 0 8 -1 6 -3z m1111 -17 c0 -5 -4 -10 -10 -10 -5 0
-10 5 -10 10 0 6 5 10 10 10 6 0 10 -4 10 -10z m-40 -15 c-7 -8 -17 -15 -22
-15 -6 0 -5 7 2 15 7 8 17 15 22 15 6 0 5 -7 -2 -15z m-1070 -5 c0 -5 -4 -10
-10 -10 -5 0 -10 5 -10 10 0 6 5 10 10 10 6 0 10 -4 10 -10z m-183 -6 c-3 -3
-12 -4 -19 -1 -8 3 -5 6 6 6 11 1 17 -2 13 -5z m1395 -16 c-7 -7 -12 -8 -12
-2 0 14 12 26 19 19 2 -3 -1 -11 -7 -17z m-1442 -22 c0 -3 -4 -8 -10 -11 -5
-3 -10 -1 -10 4 0 6 5 11 10 11 6 0 10 -2 10 -4z m1445 -46 c-3 -5 -10 -10
-16 -10 -5 0 -9 5 -9 10 0 6 7 10 16 10 8 0 12 -4 9 -10z m-1341 -65 c3 -8 -2
-22 -11 -31 -15 -15 -15 -16 3 -14 37 4 64 0 64 -10 0 -5 -8 -10 -18 -10 -10
0 -23 -5 -29 -11 -14 -14 -73 9 -73 29 0 9 -7 11 -19 7 -14 -4 -20 0 -23 20
-5 25 -5 25 13 9 18 -16 19 -16 19 1 0 14 3 13 19 -6 l19 -24 13 28 c14 31 15
32 23 12z m1046 -55 c-8 -5 -28 -9 -45 -9 -30 2 -30 2 5 9 51 11 57 11 40 0z
m-85 -8 c-14 -12 -65 -32 -65 -26 0 3 15 11 33 19 37 17 45 18 32 7z m55 -31
c-36 -10 -89 -27 -117 -38 -57 -23 -74 -15 -20 9 17 8 48 22 67 31 19 8 58 16
85 15 l50 0 -65 -17z m-990 -1 c0 -5 -5 -10 -11 -10 -5 0 -7 5 -4 10 3 6 8 10
11 10 2 0 4 -4 4 -10z m77 -39 c-2 -9 -9 -15 -15 -13 -7 1 -12 -2 -12 -7 0
-14 -84 -44 -88 -32 -5 14 -52 14 -86 1 -16 -6 -26 -6 -26 0 0 10 33 16 122
24 32 2 68 12 80 20 12 9 17 16 10 16 -6 0 -12 4 -12 10 0 5 7 7 15 3 9 -3 14
-13 12 -22z m-77 -132 c0 -17 -30 -22 -56 -10 -14 6 -23 15 -20 19 7 11 76 2
76 -9z m690 17 c0 -2 -7 -7 -16 -10 -8 -3 -12 -2 -9 4 6 10 25 14 25 6z"/>
<path d="M565 970 c4 -6 11 -8 16 -5 14 9 11 15 -7 15 -8 0 -12 -5 -9 -10z"/>
<path d="M668 859 c-39 -10 -48 -18 -41 -34 12 -33 80 -7 71 28 -2 10 -11 12
-30 6z"/>
<path d="M690 798 c-19 -5 -51 -8 -72 -6 -21 2 -38 0 -38 -4 0 -5 17 -8 38 -8
20 0 46 -3 58 -6 12 -3 30 3 45 15 26 22 21 24 -31 9z"/>
<path d="M630 750 c0 -5 14 -10 30 -10 17 0 30 5 30 10 0 6 -13 10 -30 10 -16
0 -30 -4 -30 -10z"/>
<path d="M118 113 c6 -2 18 -2 25 0 6 3 1 5 -13 5 -14 0 -19 -2 -12 -5z"/>
<path d="M420 1110 c-6 -11 -8 -20 -6 -20 3 0 10 9 16 20 6 11 8 20 6 20 -3 0
-10 -9 -16 -20z"/>
<path d="M3 1074 c0 -8 6 -14 14 -14 17 0 17 16 0 23 -8 3 -14 -1 -14 -9z"/>
<path d="M1225 1079 c-4 -6 -5 -12 -2 -15 2 -3 7 2 10 11 7 17 1 20 -8 4z"/>
<path d="M0 1005 c0 -8 2 -15 4 -15 2 0 6 7 10 15 3 8 1 15 -4 15 -6 0 -10 -7
-10 -15z"/>
<path d="M1385 447 c-15 -12 -16 -15 -2 -20 9 -3 18 1 21 10 9 22 3 25 -19 10z"/>
<path d="M1428 393 c6 -2 12 -11 12 -19 0 -19 10 -17 40 6 l25 20 -45 -1 c-25
0 -39 -3 -32 -6z"/>
</g>
</svg>
